<svg width="208" height="208" viewBox="0 0 208 208" fill="none" xmlns="http://www.w3.org/2000/svg">
<g id="online-shopping 1">
<path id="Vector" d="M113.75 78C112.888 78 112.061 77.6576 111.452 77.0481C110.842 76.4386 110.5 75.612 110.5 74.75V42.25C110.5 36.2163 108.103 30.4298 103.837 26.1633C99.5702 21.8969 93.7837 19.5 87.75 19.5C81.7163 19.5 75.9298 21.8969 71.6633 26.1633C67.3969 30.4298 65 36.2163 65 42.25V74.75C65 75.612 64.6576 76.4386 64.0481 77.0481C63.4386 77.6576 62.612 78 61.75 78C60.888 78 60.0614 77.6576 59.4519 77.0481C58.8424 76.4386 58.5 75.612 58.5 74.75V42.25C58.5 34.4924 61.5817 27.0526 67.0671 21.5671C72.5526 16.0817 79.9924 13 87.75 13C95.5076 13 102.947 16.0817 108.433 21.5671C113.918 27.0526 117 34.4924 117 42.25V74.75C117 75.612 116.658 76.4386 116.048 77.0481C115.439 77.6576 114.612 78 113.75 78Z" fill="#DADCDE"/>
<path id="Vector_2" d="M120.25 191.75H9.75L16.25 61.75H113.75L120.25 191.75Z" fill="#2196F3"/>
<path id="Vector_3" d="M146.25 191.75H120.25L113.75 61.75H139.75L146.25 191.75Z" fill="#0079D9"/>
<path id="Vector_4" d="M133.441 175.496C133.376 175.5 133.311 175.5 133.246 175.5C132.417 175.499 131.621 175.182 131.018 174.614C130.415 174.045 130.053 173.268 130.004 172.441L123.504 61.9409C123.5 61.8759 123.5 61.815 123.5 61.75H130.008L136.496 172.059C136.546 172.92 136.253 173.765 135.68 174.41C135.107 175.054 134.302 175.445 133.441 175.496Z" fill="#066DBF"/>
<path id="Vector_5" d="M198.25 191.75H172.25L171.844 186.497V186.493L165.75 107.25H191.75L197.742 185.124V185.128L198.25 191.75Z" fill="#F3B600"/>
<path id="Vector_6" d="M185.575 175.484C185.466 175.495 185.356 175.501 185.246 175.5C184.441 175.499 183.665 175.199 183.068 174.659C182.472 174.119 182.097 173.376 182.016 172.575L181.898 171.413L175.516 107.575C175.505 107.467 175.499 107.359 175.5 107.25H182.016L188.403 171.117L188.484 171.925C188.526 172.35 188.485 172.779 188.362 173.187C188.239 173.596 188.037 173.976 187.766 174.307C187.496 174.637 187.164 174.911 186.788 175.113C186.412 175.315 186 175.441 185.575 175.484Z" fill="#E09F2C"/>
<path id="Vector_7" d="M198.25 191.75H194.342L185.25 178.108L176.158 191.75H172.25L171.844 186.497V186.493L181.898 171.413L182.544 170.446C182.842 170.001 183.244 169.637 183.716 169.384C184.188 169.132 184.715 169 185.25 169C185.785 169 186.312 169.132 186.784 169.384C187.256 169.637 187.658 170.001 187.956 170.446L188.403 171.117L197.742 185.124V185.128L198.25 191.75Z" fill="#E09F2C"/>
<path id="Vector_8" d="M172.25 191.75H87.75L94.25 107.25H165.75L172.25 191.75Z" fill="#FFC107"/>
<path id="Vector_9" d="M133.25 169H126.75C122.442 168.995 118.311 167.282 115.265 164.235C112.218 161.189 110.505 157.058 110.5 152.75V126.75C110.5 125.888 110.842 125.061 111.452 124.452C112.061 123.842 112.888 123.5 113.75 123.5C114.612 123.5 115.439 123.842 116.048 124.452C116.658 125.061 117 125.888 117 126.75V152.75C117.003 155.335 118.031 157.813 119.859 159.641C121.687 161.469 124.165 162.497 126.75 162.5H133.25C135.835 162.497 138.313 161.469 140.141 159.641C141.969 157.813 142.997 155.335 143 152.75V126.75C143 125.888 143.342 125.061 143.952 124.452C144.561 123.842 145.388 123.5 146.25 123.5C147.112 123.5 147.939 123.842 148.548 124.452C149.158 125.061 149.5 125.888 149.5 126.75V152.75C149.495 157.058 147.782 161.189 144.735 164.235C141.689 167.282 137.558 168.995 133.25 169Z" fill="#E9EEF2"/>
<path id="Vector_10" d="M39 74.75H45.5V94.25H39V74.75Z" fill="#DADCDE"/>
<path id="Vector_11" d="M42.25 78C41.388 78 40.5614 77.6576 39.9519 77.0481C39.3424 76.4386 39 75.612 39 74.75V42.25C39 34.4924 42.0817 27.0526 47.5671 21.5671C53.0526 16.0817 60.4924 13 68.25 13C76.0076 13 83.4474 16.0817 88.9329 21.5671C94.4183 27.0526 97.5 34.4924 97.5 42.25V74.75C97.5 75.612 97.1576 76.4386 96.5481 77.0481C95.9386 77.6576 95.112 78 94.25 78C93.388 78 92.5614 77.6576 91.9519 77.0481C91.3424 76.4386 91 75.612 91 74.75V42.25C91 36.2163 88.6031 30.4298 84.3367 26.1633C80.0702 21.8969 74.2837 19.5 68.25 19.5C62.2163 19.5 56.4298 21.8969 52.1633 26.1633C47.8969 30.4298 45.5 36.2163 45.5 42.25V74.75C45.5 75.612 45.1576 76.4386 44.5481 77.0481C43.9386 77.6576 43.112 78 42.25 78Z" fill="#E9EEF2"/>
<path id="Vector_12" d="M52 120.25H32.5V94.25L42.25 87.75L52 94.25V120.25Z" fill="#FFC107"/>
</g>
</svg>
